<svg width="64" height="64" viewBox="0 0 64 64" fill="none" xmlns="http://www.w3.org/2000/svg">
<rect width="64" height="64" rx="32" fill="#EDEDED"/>
<mask id="mask0_309_366" style="mask-type:alpha" maskUnits="userSpaceOnUse" x="0" y="0" width="64" height="64">
<path fill-rule="evenodd" clip-rule="evenodd" d="M32 64C49.6731 64 64 49.6731 64 32C64 14.3269 49.6731 0 32 0V5.81818C46.4598 5.81818 58.1818 17.5402 58.1818 32C58.1818 46.4598 46.4598 58.1818 32 58.1818C17.5402 58.1818 5.81818 46.4598 5.81818 32H0C0 49.6731 14.3269 64 32 64Z" fill="#1166FD"/>
</mask>
<g mask="url(#mask0_309_366)">
</g>
<path opacity="0.67" d="M26.4219 22.7327V36.1858H33.1485C34.0704 36.1858 34.9376 36.0139 35.7501 35.6702C36.5626 35.3108 37.2735 34.8264 37.8829 34.217C38.4922 33.6077 38.9688 32.8967 39.3126 32.0842C39.6719 31.2561 39.8516 30.3811 39.8516 29.4592C39.8516 28.5374 39.6719 27.6702 39.3126 26.8577C38.9688 26.0295 38.4922 25.3108 37.8829 24.7014C37.2735 24.092 36.5626 23.6155 35.7501 23.2717C34.9376 22.9124 34.0704 22.7327 33.1485 22.7327H26.4219ZM26.4219 49.6155H19.6954V16.0061H33.1485C34.3829 16.0061 35.5704 16.1702 36.711 16.4983C37.8516 16.8108 38.9141 17.2639 39.8985 17.8577C40.8985 18.4358 41.8047 19.1389 42.6172 19.967C43.4454 20.7795 44.1485 21.6858 44.7266 22.6858C45.3204 23.6858 45.7735 24.7561 46.086 25.8967C46.4141 27.0374 46.5782 28.2249 46.5782 29.4592C46.5782 31.303 46.2266 33.0452 45.5235 34.6858C44.8204 36.3108 43.8594 37.7327 42.6407 38.9514C41.4219 40.1702 39.9922 41.1311 38.3516 41.8342C36.7266 42.5374 34.9922 42.8889 33.1485 42.8889H26.4219V49.6155Z" fill="#2B7FFF"/>
</svg>
